<?xml version="1.0" encoding="utf-8"?>
<!-- Svg Vector Icons : http://www.onlinewebfonts.com/icon -->
<!DOCTYPE svg PUBLIC "-//W3C//DTD SVG 1.1//EN" "http://www.w3.org/Graphics/SVG/1.1/DTD/svg11.dtd">
<svg version="1.1" xmlns="http://www.w3.org/2000/svg" xmlns:xlink="http://www.w3.org/1999/xlink" x="0px" y="0px" viewBox="0 0 1000 1000" enable-background="new 0 0 1000 1000" xml:space="preserve">
<metadata> Svg Vector Icons : http://www.onlinewebfonts.com/icon </metadata>
<g><g transform="translate(0.000000,511.000000) scale(0.100000,-0.100000)"><path d="M3677.9,4754.3C2979.6,4616.4,2408.1,4503,2408.1,4503c-2.2-2.2-11.1-48.9-20-106.7c-86.7-613.7-1169.7-1572.2-1950.2-1730.1c-73.4-13.3-73.4-11.1-40-455.9c131.2-1750.1,845-3515.7,2019.2-4978.9c351.4-435.9,945.1-1009.6,1380.9-1334.3c324.7-237.9,802.8-513.7,1140.8-653.8l80-33.4l331.3,162.3c555.9,273.5,1011.8,618.2,1552.2,1171.9c447,453.7,720.5,791.6,1094.1,1352C8754.6-971.8,9303.9,344.6,9524.1,1552.1c64.5,346.9,108.9,796.1,97.8,978.4l-6.7,131.2l-144.5,31.1c-313.5,62.3-831.7,382.5-1227.5,758.3c-358,342.5-580.4,682.7-611.5,934c-11.1,93.4-22.2,117.9-60,126.8c-204.6,46.7-2559.5,500.3-2588.4,498.1C4963.2,5007.8,4376.1,4894.4,3677.9,4754.3z M4307.2,2050.2l718.3-718.3l704.9,718.3c386.9,393.6,713.8,718.3,727.2,716c11.1,0,193.5-173.5,404.7-382.5l384.7-384.7l-727.2-727.2l-729.4-729.4l729.4-729.4L7247-914l-389.2-389.2l-389.2-389.2l-718.3,718.3C5356.8-580.5,5023.2-258,5012.1-258c-11.1,0-344.7-322.4-738.3-716.1l-718.3-718.3l-389.2,389.2L2777.3-914l727.2,727.2l729.4,729.4l-729.4,729.4l-727.2,727.2l382.5,384.7c211.3,209,393.6,382.5,406.9,382.5C3577.8,2766.2,3911.4,2443.8,4307.2,2050.2z"/></g></g>
</svg>